<svg width="104" height="15" viewBox="0 0 104 15" fill="none" xmlns="http://www.w3.org/2000/svg">
<path d="M9.01196 11.5526H4.40052L3.5952 14.1603H0L5.11956 0.201331H8.28333L13.4412 14.1603H9.82687L9.01196 11.5526ZM5.20584 8.95444H8.20663L6.70145 4.1129L5.20584 8.95444Z" fill="#656980"/>
<path d="M25.5499 9.4338C25.5051 10.4053 25.2431 11.2649 24.7637 12.0127C24.2844 12.7542 23.6101 13.3294 22.7408 13.7384C21.878 14.1475 20.8905 14.352 19.7784 14.352C17.944 14.352 16.4996 13.7544 15.445 12.5592C14.3904 11.364 13.8631 9.67667 13.8631 7.49718V6.8069C13.8631 5.43913 14.0996 4.24393 14.5725 3.2213C15.0519 2.19227 15.739 1.39973 16.6338 0.843673C17.5286 0.281224 18.564 0 19.74 0C21.4338 0 22.7951 0.447402 23.8242 1.34221C24.8532 2.23062 25.438 3.45778 25.5786 5.02369H22.2231C22.1975 4.17362 21.9834 3.56324 21.5808 3.19253C21.1781 2.82183 20.5645 2.63648 19.74 2.63648C18.9027 2.63648 18.2892 2.94966 17.8993 3.57602C17.5094 4.20238 17.3049 5.20265 17.2857 6.57681V7.56429C17.2857 9.0535 17.4711 10.1177 17.8418 10.7568C18.2189 11.396 18.8644 11.7155 19.7784 11.7155C20.5517 11.7155 21.1429 11.5334 21.552 11.1691C21.9611 10.8048 22.1784 10.2263 22.2039 9.4338H25.5499Z" fill="#656980"/>
<path d="M37.8119 2.79946H33.6223V14.1603H30.2572V2.79946H26.1443V0.201331H37.8119V2.79946Z" fill="#656980"/>
<path d="M42.826 14.1603H39.4705V0.201331H42.826V14.1603Z" fill="#656980"/>
<path d="M50.582 10.3638L53.3623 0.201331H57.1205L52.4228 14.1603H48.7413L44.0819 0.201331H47.8113L50.582 10.3638Z" fill="#656980"/>
<path d="M66.8035 8.24498H61.5114V11.5717H67.7623V14.1603H58.1463V0.201331H67.7814V2.79946H61.5114V5.74273H66.8035V8.24498Z" fill="#656980"/>
<path d="M69.4761 14.1507V0.191744H73.148C74.65 0.191744 75.7844 0.498534 76.5514 1.11211C77.3248 1.7193 77.7115 2.60452 77.7115 3.76777C77.7115 4.61144 77.4974 5.3113 77.0691 5.86736C76.6409 6.42342 76.0369 6.77814 75.2571 6.93154C76.1392 7.04658 76.8742 7.43007 77.4622 8.082C78.0502 8.72754 78.3442 9.46895 78.3442 10.3062C78.3442 11.495 77.9575 12.4346 77.1842 13.1249C76.4172 13.8087 75.3466 14.1507 73.9725 14.1507H69.4761ZM69.9938 7.2575V13.633H74.03C75.2124 13.633 76.1392 13.3422 76.8103 12.7605C77.4878 12.1725 77.8265 11.3608 77.8265 10.3254C77.8265 9.44338 77.5006 8.71795 76.8486 8.14911C76.1967 7.57388 75.3243 7.27668 74.2313 7.2575H69.9938ZM69.9938 6.73979H73.3397C74.6116 6.73979 75.5703 6.49692 76.2159 6.01117C76.8614 5.51903 77.1842 4.75844 77.1842 3.72942C77.1842 1.74806 75.8771 0.741409 73.263 0.709452H69.9938V6.73979Z" fill="white"/>
<path d="M91.2102 8.21622C91.2102 9.42421 90.9929 10.4948 90.5583 11.4279C90.1301 12.3547 89.5165 13.0737 88.7176 13.585C87.9186 14.09 86.9983 14.3424 85.9565 14.3424C84.3842 14.3424 83.1123 13.7832 82.1408 12.6647C81.1692 11.5462 80.6835 10.0378 80.6835 8.13952V6.12621C80.6835 4.92462 80.8976 3.85725 81.3258 2.92409C81.7605 1.99094 82.3772 1.2719 83.1762 0.766975C83.9815 0.255658 84.9019 0 85.9373 0C86.9791 0 87.8995 0.255658 88.6984 0.766975C89.5037 1.2719 90.1237 1.99414 90.5583 2.93368C90.9929 3.86683 91.2102 4.93101 91.2102 6.12621V8.21622ZM90.6925 6.10704C90.6925 4.41969 90.2643 3.0679 89.4078 2.05166C88.5514 1.02903 87.3945 0.517708 85.9373 0.517708C84.4992 0.517708 83.3519 1.02583 82.4955 2.04207C81.639 3.05192 81.2108 4.42928 81.2108 6.17415V8.21622C81.2108 9.32833 81.4025 10.3126 81.786 11.1691C82.1759 12.0191 82.7288 12.6743 83.4446 13.1344C84.1605 13.5946 84.9977 13.8247 85.9565 13.8247C87.4137 13.8247 88.5674 13.3166 89.4174 12.3004C90.2675 11.2841 90.6925 9.89717 90.6925 8.13952V6.10704Z" fill="white"/>
<path d="M98.1322 6.62475L102.638 0.191744H103.29L98.4581 7.02741L103.472 14.1507H102.83L98.1322 7.43007L93.4153 14.1507H92.7921L97.8062 7.02741L92.9743 0.191744H93.6262L98.1322 6.62475Z" fill="white"/>
</svg>
